# xmcd CD database file
#
# Track frame offsets:
#	150
#	20150
#	33675
#	44300
#	55325
#	70875
#	84100
#	97512
#	118100
#	130725
#	144800
#	160712
#	176450
#	197312
#	207937
#	228225
#	242225
#	260250
#
# Disc length: 3662 seconds
#
# Revision: 1
# Processed by: cddbd v1.5.2PL0 Copyright (c) Steve Scherf et al.
# Submitted via: CDex 1.70beta2
#
DISCID=e40e4c12
DTITLE=Luis Armstrong - The Best of Louis Armstrong
DYEAR=1996
DGENRE=Jazz
TTITLE0=When the Saints Go Marching In
TTITLE1=Moon River
TTITLE2=What a Wondreful World
TTITLE3=Hello Dolly!
TTITLE4=La Vie En Rose
TTITLE5=Honeysuckle Rose
TTITLE6=Sincerely
TTITLE7=On the Sunny Side of the Street
TTITLE8=Cabaret
TTITLE9=Kiss of Fire
TTITLE10=Memories of You
TTITLE11=I Get Ideas
TTITLE12=Black and Blue
TTITLE13=It's Been a Long, Long Time
TTITLE14=Kiss to Built a Dream On
TTITLE15=C'est Si Bon
TTITLE16=Ain't Misbehavin'
TTITLE17=Only You
EXTD=YEAR: 1996
EXTT0=
EXTT1=
EXTT2=
EXTT3=
EXTT4=
EXTT5=
EXTT6=
EXTT7=
EXTT8=
EXTT9=
EXTT10=
EXTT11=
EXTT12=
EXTT13=
EXTT14=
EXTT15=
EXTT16=
EXTT17=
PLAYORDER=
